<?xml version="1.0" encoding="UTF-8" standalone="no"?>
<!DOCTYPE svg PUBLIC "-//W3C//DTD SVG 1.1//EN"
 "http://www.w3.org/Graphics/SVG/1.1/DTD/svg11.dtd">
<!-- Generated by graphviz version 2.47.3 (20210619.1520)
 -->
<!-- Title: dependencies Pages: 1 -->
<svg width="3006pt" height="247pt"
 viewBox="0.00 0.00 3006.00 246.80" xmlns="http://www.w3.org/2000/svg" xmlns:xlink="http://www.w3.org/1999/xlink">
<g id="graph0" class="graph" transform="scale(1 1) rotate(0) translate(4 242.8)">
<title>dependencies</title>
<polygon fill="white" stroke="transparent" points="-4,4 -4,-242.8 3002,-242.8 3002,4 -4,4"/>
<text text-anchor="middle" x="1499" y="-8.2" font-family="sans-serif" font-size="14.00">dependencies</text>
<g id="clust1" class="cluster">
<title>cluster_AppModule</title>
<polygon fill="none" stroke="black" stroke-dasharray="1,5" points="8,-32.8 8,-230.8 2990,-230.8 2990,-32.8 8,-32.8"/>
</g>
<g id="clust21" class="cluster">
<title>cluster_AppModule_providers</title>
<polygon fill="none" stroke="black" points="2848,-40.8 2848,-92.8 2982,-92.8 2982,-40.8 2848,-40.8"/>
</g>
<g id="clust2" class="cluster">
<title>cluster_AppModule_declarations</title>
<polygon fill="none" stroke="black" points="168,-40.8 168,-92.8 2840,-92.8 2840,-40.8 168,-40.8"/>
</g>
<g id="clust20" class="cluster">
<title>cluster_AppModule_bootstrap</title>
<polygon fill="none" stroke="black" points="1408,-170.8 1408,-222.8 1532,-222.8 1532,-170.8 1408,-170.8"/>
</g>
<g id="clust18" class="cluster">
<title>cluster_AppModule_imports</title>
<polygon fill="none" stroke="black" points="16,-40.8 16,-92.8 160,-92.8 160,-40.8 16,-40.8"/>
</g>
<!-- AppComponent -->
<g id="node1" class="node">
<title>AppComponent</title>
<polygon fill="#ffffb3" stroke="black" points="2831.94,-84.8 2726.06,-84.8 2726.06,-48.8 2831.94,-48.8 2831.94,-84.8"/>
<text text-anchor="middle" x="2779" y="-62.6" font-family="Times,serif" font-size="14.00">AppComponent</text>
</g>
<!-- AppModule -->
<g id="node16" class="node">
<title>AppModule</title>
<polygon fill="#8dd3c7" stroke="black" points="1511.66,-149.8 1508.66,-153.8 1487.66,-153.8 1484.66,-149.8 1428.34,-149.8 1428.34,-113.8 1511.66,-113.8 1511.66,-149.8"/>
<text text-anchor="middle" x="1470" y="-127.6" font-family="Times,serif" font-size="14.00">AppModule</text>
</g>
<!-- AppComponent&#45;&gt;AppModule -->
<g id="edge1" class="edge">
<title>AppComponent&#45;&gt;AppModule</title>
<path fill="none" stroke="black" d="M2779,-84.96C2779,-107.15 2779,-141.8 2779,-141.8 2779,-141.8 1521.7,-141.8 1521.7,-141.8"/>
<polygon fill="black" stroke="black" points="1521.7,-138.3 1511.7,-141.8 1521.7,-145.3 1521.7,-138.3"/>
</g>
<!-- ChannelsComponent -->
<g id="node2" class="node">
<title>ChannelsComponent</title>
<polygon fill="#ffffb3" stroke="black" points="2708.93,-84.8 2575.07,-84.8 2575.07,-48.8 2708.93,-48.8 2708.93,-84.8"/>
<text text-anchor="middle" x="2642" y="-62.6" font-family="Times,serif" font-size="14.00">ChannelsComponent</text>
</g>
<!-- ChannelsComponent&#45;&gt;AppModule -->
<g id="edge2" class="edge">
<title>ChannelsComponent&#45;&gt;AppModule</title>
<path fill="none" stroke="black" d="M2642,-85.08C2642,-106.12 2642,-137.8 2642,-137.8 2642,-137.8 1521.71,-137.8 1521.71,-137.8"/>
<polygon fill="black" stroke="black" points="1521.71,-134.3 1511.71,-137.8 1521.71,-141.3 1521.71,-134.3"/>
</g>
<!-- DashboardComponent -->
<g id="node3" class="node">
<title>DashboardComponent</title>
<polygon fill="#ffffb3" stroke="black" points="2556.97,-84.8 2415.03,-84.8 2415.03,-48.8 2556.97,-48.8 2556.97,-84.8"/>
<text text-anchor="middle" x="2486" y="-62.6" font-family="Times,serif" font-size="14.00">DashboardComponent</text>
</g>
<!-- DashboardComponent&#45;&gt;AppModule -->
<g id="edge3" class="edge">
<title>DashboardComponent&#45;&gt;AppModule</title>
<path fill="none" stroke="black" d="M2486,-85.11C2486,-104.95 2486,-133.8 2486,-133.8 2486,-133.8 1521.72,-133.8 1521.72,-133.8"/>
<polygon fill="black" stroke="black" points="1521.72,-130.3 1511.72,-133.8 1521.72,-137.3 1521.72,-130.3"/>
</g>
<!-- DialogAddChannelComponent -->
<g id="node4" class="node">
<title>DialogAddChannelComponent</title>
<polygon fill="#ffffb3" stroke="black" points="2397.2,-84.8 2206.8,-84.8 2206.8,-48.8 2397.2,-48.8 2397.2,-84.8"/>
<text text-anchor="middle" x="2302" y="-62.6" font-family="Times,serif" font-size="14.00">DialogAddChannelComponent</text>
</g>
<!-- DialogAddChannelComponent&#45;&gt;AppModule -->
<g id="edge4" class="edge">
<title>DialogAddChannelComponent&#45;&gt;AppModule</title>
<path fill="none" stroke="black" d="M2302,-85.02C2302,-103.63 2302,-129.8 2302,-129.8 2302,-129.8 1521.83,-129.8 1521.83,-129.8"/>
<polygon fill="black" stroke="black" points="1521.83,-126.3 1511.83,-129.8 1521.83,-133.3 1521.83,-126.3"/>
</g>
<!-- DialogAddWishComponent -->
<g id="node5" class="node">
<title>DialogAddWishComponent</title>
<polygon fill="#ffffb3" stroke="black" points="2188.59,-84.8 2015.41,-84.8 2015.41,-48.8 2188.59,-48.8 2188.59,-84.8"/>
<text text-anchor="middle" x="2102" y="-62.6" font-family="Times,serif" font-size="14.00">DialogAddWishComponent</text>
</g>
<!-- DialogAddWishComponent&#45;&gt;AppModule -->
<g id="edge5" class="edge">
<title>DialogAddWishComponent&#45;&gt;AppModule</title>
<path fill="none" stroke="black" d="M2102,-84.82C2102,-102.17 2102,-125.8 2102,-125.8 2102,-125.8 1521.96,-125.8 1521.96,-125.8"/>
<polygon fill="black" stroke="black" points="1521.96,-122.3 1511.96,-125.8 1521.96,-129.3 1521.96,-122.3"/>
</g>
<!-- DialogDataProtectionComponent -->
<g id="node6" class="node">
<title>DialogDataProtectionComponent</title>
<polygon fill="#ffffb3" stroke="black" points="1997.91,-84.8 1794.09,-84.8 1794.09,-48.8 1997.91,-48.8 1997.91,-84.8"/>
<text text-anchor="middle" x="1896" y="-62.6" font-family="Times,serif" font-size="14.00">DialogDataProtectionComponent</text>
</g>
<!-- DialogDataProtectionComponent&#45;&gt;AppModule -->
<g id="edge6" class="edge">
<title>DialogDataProtectionComponent&#45;&gt;AppModule</title>
<path fill="none" stroke="black" d="M1896,-84.81C1896,-100.85 1896,-121.8 1896,-121.8 1896,-121.8 1522.01,-121.8 1522.01,-121.8"/>
<polygon fill="black" stroke="black" points="1522.01,-118.3 1512.01,-121.8 1522.01,-125.3 1522.01,-118.3"/>
</g>
<!-- DialogDeleteChannelComponent -->
<g id="node7" class="node">
<title>DialogDeleteChannelComponent</title>
<polygon fill="#ffffb3" stroke="black" points="1776.12,-84.8 1573.88,-84.8 1573.88,-48.8 1776.12,-48.8 1776.12,-84.8"/>
<text text-anchor="middle" x="1675" y="-62.6" font-family="Times,serif" font-size="14.00">DialogDeleteChannelComponent</text>
</g>
<!-- DialogDeleteChannelComponent&#45;&gt;AppModule -->
<g id="edge7" class="edge">
<title>DialogDeleteChannelComponent&#45;&gt;AppModule</title>
<path fill="none" stroke="black" d="M1675,-84.92C1675,-99.58 1675,-117.8 1675,-117.8 1675,-117.8 1521.98,-117.8 1521.98,-117.8"/>
<polygon fill="black" stroke="black" points="1521.98,-114.3 1511.98,-117.8 1521.98,-121.3 1521.98,-114.3"/>
</g>
<!-- DialogEditWishComponent -->
<g id="node8" class="node">
<title>DialogEditWishComponent</title>
<polygon fill="#ffffb3" stroke="black" points="1556.32,-84.8 1383.68,-84.8 1383.68,-48.8 1556.32,-48.8 1556.32,-84.8"/>
<text text-anchor="middle" x="1470" y="-62.6" font-family="Times,serif" font-size="14.00">DialogEditWishComponent</text>
</g>
<!-- DialogEditWishComponent&#45;&gt;AppModule -->
<g id="edge8" class="edge">
<title>DialogEditWishComponent&#45;&gt;AppModule</title>
<path fill="none" stroke="black" d="M1470,-84.91C1470,-84.91 1470,-103.79 1470,-103.79"/>
<polygon fill="black" stroke="black" points="1466.5,-103.79 1470,-113.79 1473.5,-103.79 1466.5,-103.79"/>
</g>
<!-- DialogJoinChannelComponent -->
<g id="node9" class="node">
<title>DialogJoinChannelComponent</title>
<polygon fill="#ffffb3" stroke="black" points="1365.93,-84.8 1176.07,-84.8 1176.07,-48.8 1365.93,-48.8 1365.93,-84.8"/>
<text text-anchor="middle" x="1271" y="-62.6" font-family="Times,serif" font-size="14.00">DialogJoinChannelComponent</text>
</g>
<!-- DialogJoinChannelComponent&#45;&gt;AppModule -->
<g id="edge9" class="edge">
<title>DialogJoinChannelComponent&#45;&gt;AppModule</title>
<path fill="none" stroke="black" d="M1271,-84.92C1271,-99.58 1271,-117.8 1271,-117.8 1271,-117.8 1418.28,-117.8 1418.28,-117.8"/>
<polygon fill="black" stroke="black" points="1418.28,-121.3 1428.28,-117.8 1418.28,-114.3 1418.28,-121.3"/>
</g>
<!-- DialogLegalNoticeComponent -->
<g id="node10" class="node">
<title>DialogLegalNoticeComponent</title>
<polygon fill="#ffffb3" stroke="black" points="1158.12,-84.8 969.88,-84.8 969.88,-48.8 1158.12,-48.8 1158.12,-84.8"/>
<text text-anchor="middle" x="1064" y="-62.6" font-family="Times,serif" font-size="14.00">DialogLegalNoticeComponent</text>
</g>
<!-- DialogLegalNoticeComponent&#45;&gt;AppModule -->
<g id="edge10" class="edge">
<title>DialogLegalNoticeComponent&#45;&gt;AppModule</title>
<path fill="none" stroke="black" d="M1064,-84.81C1064,-100.85 1064,-121.8 1064,-121.8 1064,-121.8 1418.08,-121.8 1418.08,-121.8"/>
<polygon fill="black" stroke="black" points="1418.08,-125.3 1428.08,-121.8 1418.08,-118.3 1418.08,-125.3"/>
</g>
<!-- DialogStartComponent -->
<g id="node11" class="node">
<title>DialogStartComponent</title>
<polygon fill="#ffffb3" stroke="black" points="951.87,-84.8 806.13,-84.8 806.13,-48.8 951.87,-48.8 951.87,-84.8"/>
<text text-anchor="middle" x="879" y="-62.6" font-family="Times,serif" font-size="14.00">DialogStartComponent</text>
</g>
<!-- DialogStartComponent&#45;&gt;AppModule -->
<g id="edge11" class="edge">
<title>DialogStartComponent&#45;&gt;AppModule</title>
<path fill="none" stroke="black" d="M879,-84.82C879,-102.17 879,-125.8 879,-125.8 879,-125.8 1417.97,-125.8 1417.97,-125.8"/>
<polygon fill="black" stroke="black" points="1417.97,-129.3 1427.97,-125.8 1417.97,-122.3 1417.97,-129.3"/>
</g>
<!-- DialogUserDeleteComponent -->
<g id="node12" class="node">
<title>DialogUserDeleteComponent</title>
<polygon fill="#ffffb3" stroke="black" points="788.39,-84.8 605.61,-84.8 605.61,-48.8 788.39,-48.8 788.39,-84.8"/>
<text text-anchor="middle" x="697" y="-62.6" font-family="Times,serif" font-size="14.00">DialogUserDeleteComponent</text>
</g>
<!-- DialogUserDeleteComponent&#45;&gt;AppModule -->
<g id="edge12" class="edge">
<title>DialogUserDeleteComponent&#45;&gt;AppModule</title>
<path fill="none" stroke="black" d="M697,-85.02C697,-103.63 697,-129.8 697,-129.8 697,-129.8 1418.17,-129.8 1418.17,-129.8"/>
<polygon fill="black" stroke="black" points="1418.17,-133.3 1428.17,-129.8 1418.17,-126.3 1418.17,-133.3"/>
</g>
<!-- MenuBarComponent -->
<g id="node13" class="node">
<title>MenuBarComponent</title>
<polygon fill="#ffffb3" stroke="black" points="588.2,-84.8 453.8,-84.8 453.8,-48.8 588.2,-48.8 588.2,-84.8"/>
<text text-anchor="middle" x="521" y="-62.6" font-family="Times,serif" font-size="14.00">MenuBarComponent</text>
</g>
<!-- MenuBarComponent&#45;&gt;AppModule -->
<g id="edge13" class="edge">
<title>MenuBarComponent&#45;&gt;AppModule</title>
<path fill="none" stroke="black" d="M521,-85.11C521,-104.95 521,-133.8 521,-133.8 521,-133.8 1418.31,-133.8 1418.31,-133.8"/>
<polygon fill="black" stroke="black" points="1418.31,-137.3 1428.31,-133.8 1418.31,-130.3 1418.31,-137.3"/>
</g>
<!-- SignInComponent -->
<g id="node14" class="node">
<title>SignInComponent</title>
<polygon fill="#ffffb3" stroke="black" points="436.17,-84.8 317.83,-84.8 317.83,-48.8 436.17,-48.8 436.17,-84.8"/>
<text text-anchor="middle" x="377" y="-62.6" font-family="Times,serif" font-size="14.00">SignInComponent</text>
</g>
<!-- SignInComponent&#45;&gt;AppModule -->
<g id="edge14" class="edge">
<title>SignInComponent&#45;&gt;AppModule</title>
<path fill="none" stroke="black" d="M377,-85.08C377,-106.12 377,-137.8 377,-137.8 377,-137.8 1418.16,-137.8 1418.16,-137.8"/>
<polygon fill="black" stroke="black" points="1418.16,-141.3 1428.16,-137.8 1418.16,-134.3 1418.16,-141.3"/>
</g>
<!-- SignUpComponent -->
<g id="node15" class="node">
<title>SignUpComponent</title>
<polygon fill="#ffffb3" stroke="black" points="300.11,-84.8 175.89,-84.8 175.89,-48.8 300.11,-48.8 300.11,-84.8"/>
<text text-anchor="middle" x="238" y="-62.6" font-family="Times,serif" font-size="14.00">SignUpComponent</text>
</g>
<!-- SignUpComponent&#45;&gt;AppModule -->
<g id="edge15" class="edge">
<title>SignUpComponent&#45;&gt;AppModule</title>
<path fill="none" stroke="black" d="M238,-84.96C238,-107.15 238,-141.8 238,-141.8 238,-141.8 1418.3,-141.8 1418.3,-141.8"/>
<polygon fill="black" stroke="black" points="1418.3,-145.3 1428.3,-141.8 1418.3,-138.3 1418.3,-145.3"/>
</g>
<!-- AppComponent  -->
<g id="node18" class="node">
<title>AppComponent </title>
<polygon fill="#80b1d3" stroke="black" points="1524.44,-214.8 1415.56,-214.8 1415.56,-178.8 1524.44,-178.8 1524.44,-214.8"/>
<text text-anchor="middle" x="1470" y="-192.6" font-family="Times,serif" font-size="14.00">AppComponent </text>
</g>
<!-- AppModule&#45;&gt;AppComponent  -->
<g id="edge17" class="edge">
<title>AppModule&#45;&gt;AppComponent </title>
<path fill="none" stroke="black" stroke-dasharray="1,5" d="M1470,-149.91C1470,-149.91 1470,-168.79 1470,-168.79"/>
<polygon fill="black" stroke="black" points="1466.5,-168.79 1470,-178.79 1473.5,-168.79 1466.5,-168.79"/>
</g>
<!-- AppRoutingModule -->
<g id="node17" class="node">
<title>AppRoutingModule</title>
<polygon fill="#8dd3c7" stroke="black" points="152.27,-84.8 149.27,-88.8 128.27,-88.8 125.27,-84.8 23.73,-84.8 23.73,-48.8 152.27,-48.8 152.27,-84.8"/>
<text text-anchor="middle" x="88" y="-62.6" font-family="Times,serif" font-size="14.00">AppRoutingModule</text>
</g>
<!-- AppRoutingModule&#45;&gt;AppModule -->
<g id="edge16" class="edge">
<title>AppRoutingModule&#45;&gt;AppModule</title>
<path fill="none" stroke="black" d="M88,-85.12C88,-108.46 88,-145.8 88,-145.8 88,-145.8 1418.26,-145.8 1418.26,-145.8"/>
<polygon fill="black" stroke="black" points="1418.26,-149.3 1428.26,-145.8 1418.26,-142.3 1418.26,-149.3"/>
</g>
<!-- AuthService -->
<g id="node19" class="node">
<title>AuthService</title>
<ellipse fill="#fdb462" stroke="black" cx="2915" cy="-66.8" rx="59.11" ry="18"/>
<text text-anchor="middle" x="2915" y="-62.6" font-family="Times,serif" font-size="14.00">AuthService</text>
</g>
<!-- AuthService&#45;&gt;AppModule -->
<g id="edge18" class="edge">
<title>AuthService&#45;&gt;AppModule</title>
<path fill="none" stroke="black" d="M2915,-85.12C2915,-108.46 2915,-145.8 2915,-145.8 2915,-145.8 1521.69,-145.8 1521.69,-145.8"/>
<polygon fill="black" stroke="black" points="1521.69,-142.3 1511.69,-145.8 1521.69,-149.3 1521.69,-142.3"/>
</g>
</g>
</svg>
