<?xml version="1.0" encoding="UTF-8" standalone="no"?>
<!DOCTYPE svg PUBLIC "-//W3C//DTD SVG 1.1//EN"
 "http://www.w3.org/Graphics/SVG/1.1/DTD/svg11.dtd">
<!-- Generated by graphviz version 2.47.3 (20210619.1520)
 -->
<!-- Title: dependencies Pages: 1 -->
<svg width="3006pt" height="247pt"
 viewBox="0.00 0.00 3006.00 246.80" xmlns="http://www.w3.org/2000/svg" xmlns:xlink="http://www.w3.org/1999/xlink">
<g id="graph0" class="graph" transform="scale(1 1) rotate(0) translate(4 242.8)">
<title>dependencies</title>
<polygon fill="white" stroke="transparent" points="-4,4 -4,-242.8 3002,-242.8 3002,4 -4,4"/>
<text text-anchor="middle" x="1499" y="-8.2" font-family="sans-serif" font-size="14.00">dependencies</text>
<g id="clust1" class="cluster">
<title>cluster_AppModule</title>
<polygon fill="none" stroke="black" stroke-dasharray="1,5" points="8,-32.8 8,-230.8 2990,-230.8 2990,-32.8 8,-32.8"/>
</g>
<g id="clust2" class="cluster">
<title>cluster_AppModule_declarations</title>
<polygon fill="none" stroke="black" points="310,-40.8 310,-92.8 2982,-92.8 2982,-40.8 310,-40.8"/>
</g>
<g id="clust18" class="cluster">
<title>cluster_AppModule_imports</title>
<polygon fill="none" stroke="black" points="158,-40.8 158,-92.8 302,-92.8 302,-40.8 158,-40.8"/>
</g>
<g id="clust20" class="cluster">
<title>cluster_AppModule_bootstrap</title>
<polygon fill="none" stroke="black" points="1351,-170.8 1351,-222.8 1475,-222.8 1475,-170.8 1351,-170.8"/>
</g>
<g id="clust21" class="cluster">
<title>cluster_AppModule_providers</title>
<polygon fill="none" stroke="black" points="16,-40.8 16,-92.8 150,-92.8 150,-40.8 16,-40.8"/>
</g>
<!-- AppComponent -->
<g id="node1" class="node">
<title>AppComponent</title>
<polygon fill="#ffffb3" stroke="black" points="2973.94,-84.8 2868.06,-84.8 2868.06,-48.8 2973.94,-48.8 2973.94,-84.8"/>
<text text-anchor="middle" x="2921" y="-62.6" font-family="Times,serif" font-size="14.00">AppComponent</text>
</g>
<!-- AppModule -->
<g id="node16" class="node">
<title>AppModule</title>
<polygon fill="#8dd3c7" stroke="black" points="1454.66,-149.8 1451.66,-153.8 1430.66,-153.8 1427.66,-149.8 1371.34,-149.8 1371.34,-113.8 1454.66,-113.8 1454.66,-149.8"/>
<text text-anchor="middle" x="1413" y="-127.6" font-family="Times,serif" font-size="14.00">AppModule</text>
</g>
<!-- AppComponent&#45;&gt;AppModule -->
<g id="edge1" class="edge">
<title>AppComponent&#45;&gt;AppModule</title>
<path fill="none" stroke="black" d="M2921,-85.12C2921,-108.46 2921,-145.8 2921,-145.8 2921,-145.8 1464.91,-145.8 1464.91,-145.8"/>
<polygon fill="black" stroke="black" points="1464.91,-142.3 1454.91,-145.8 1464.91,-149.3 1464.91,-142.3"/>
</g>
<!-- ChannelsComponent -->
<g id="node2" class="node">
<title>ChannelsComponent</title>
<polygon fill="#ffffb3" stroke="black" points="2850.93,-84.8 2717.07,-84.8 2717.07,-48.8 2850.93,-48.8 2850.93,-84.8"/>
<text text-anchor="middle" x="2784" y="-62.6" font-family="Times,serif" font-size="14.00">ChannelsComponent</text>
</g>
<!-- ChannelsComponent&#45;&gt;AppModule -->
<g id="edge2" class="edge">
<title>ChannelsComponent&#45;&gt;AppModule</title>
<path fill="none" stroke="black" d="M2784,-84.96C2784,-107.15 2784,-141.8 2784,-141.8 2784,-141.8 1464.78,-141.8 1464.78,-141.8"/>
<polygon fill="black" stroke="black" points="1464.78,-138.3 1454.78,-141.8 1464.78,-145.3 1464.78,-138.3"/>
</g>
<!-- DashboardComponent -->
<g id="node3" class="node">
<title>DashboardComponent</title>
<polygon fill="#ffffb3" stroke="black" points="2698.97,-84.8 2557.03,-84.8 2557.03,-48.8 2698.97,-48.8 2698.97,-84.8"/>
<text text-anchor="middle" x="2628" y="-62.6" font-family="Times,serif" font-size="14.00">DashboardComponent</text>
</g>
<!-- DashboardComponent&#45;&gt;AppModule -->
<g id="edge3" class="edge">
<title>DashboardComponent&#45;&gt;AppModule</title>
<path fill="none" stroke="black" d="M2628,-85.08C2628,-106.12 2628,-137.8 2628,-137.8 2628,-137.8 1464.82,-137.8 1464.82,-137.8"/>
<polygon fill="black" stroke="black" points="1464.82,-134.3 1454.82,-137.8 1464.82,-141.3 1464.82,-134.3"/>
</g>
<!-- DialogAddChannelComponent -->
<g id="node4" class="node">
<title>DialogAddChannelComponent</title>
<polygon fill="#ffffb3" stroke="black" points="2539.2,-84.8 2348.8,-84.8 2348.8,-48.8 2539.2,-48.8 2539.2,-84.8"/>
<text text-anchor="middle" x="2444" y="-62.6" font-family="Times,serif" font-size="14.00">DialogAddChannelComponent</text>
</g>
<!-- DialogAddChannelComponent&#45;&gt;AppModule -->
<g id="edge4" class="edge">
<title>DialogAddChannelComponent&#45;&gt;AppModule</title>
<path fill="none" stroke="black" d="M2444,-85.11C2444,-104.95 2444,-133.8 2444,-133.8 2444,-133.8 1464.69,-133.8 1464.69,-133.8"/>
<polygon fill="black" stroke="black" points="1464.69,-130.3 1454.69,-133.8 1464.69,-137.3 1464.69,-130.3"/>
</g>
<!-- DialogAddWishComponent -->
<g id="node5" class="node">
<title>DialogAddWishComponent</title>
<polygon fill="#ffffb3" stroke="black" points="2330.59,-84.8 2157.41,-84.8 2157.41,-48.8 2330.59,-48.8 2330.59,-84.8"/>
<text text-anchor="middle" x="2244" y="-62.6" font-family="Times,serif" font-size="14.00">DialogAddWishComponent</text>
</g>
<!-- DialogAddWishComponent&#45;&gt;AppModule -->
<g id="edge5" class="edge">
<title>DialogAddWishComponent&#45;&gt;AppModule</title>
<path fill="none" stroke="black" d="M2244,-85.02C2244,-103.63 2244,-129.8 2244,-129.8 2244,-129.8 1464.78,-129.8 1464.78,-129.8"/>
<polygon fill="black" stroke="black" points="1464.78,-126.3 1454.78,-129.8 1464.78,-133.3 1464.78,-126.3"/>
</g>
<!-- DialogDataProtectionComponent -->
<g id="node6" class="node">
<title>DialogDataProtectionComponent</title>
<polygon fill="#ffffb3" stroke="black" points="2139.91,-84.8 1936.09,-84.8 1936.09,-48.8 2139.91,-48.8 2139.91,-84.8"/>
<text text-anchor="middle" x="2038" y="-62.6" font-family="Times,serif" font-size="14.00">DialogDataProtectionComponent</text>
</g>
<!-- DialogDataProtectionComponent&#45;&gt;AppModule -->
<g id="edge6" class="edge">
<title>DialogDataProtectionComponent&#45;&gt;AppModule</title>
<path fill="none" stroke="black" d="M2038,-84.82C2038,-102.17 2038,-125.8 2038,-125.8 2038,-125.8 1464.98,-125.8 1464.98,-125.8"/>
<polygon fill="black" stroke="black" points="1464.98,-122.3 1454.98,-125.8 1464.98,-129.3 1464.98,-122.3"/>
</g>
<!-- DialogDeleteChannelComponent -->
<g id="node7" class="node">
<title>DialogDeleteChannelComponent</title>
<polygon fill="#ffffb3" stroke="black" points="1918.12,-84.8 1715.88,-84.8 1715.88,-48.8 1918.12,-48.8 1918.12,-84.8"/>
<text text-anchor="middle" x="1817" y="-62.6" font-family="Times,serif" font-size="14.00">DialogDeleteChannelComponent</text>
</g>
<!-- DialogDeleteChannelComponent&#45;&gt;AppModule -->
<g id="edge7" class="edge">
<title>DialogDeleteChannelComponent&#45;&gt;AppModule</title>
<path fill="none" stroke="black" d="M1817,-84.81C1817,-100.85 1817,-121.8 1817,-121.8 1817,-121.8 1464.71,-121.8 1464.71,-121.8"/>
<polygon fill="black" stroke="black" points="1464.71,-118.3 1454.71,-121.8 1464.71,-125.3 1464.71,-118.3"/>
</g>
<!-- DialogEditWishComponent -->
<g id="node8" class="node">
<title>DialogEditWishComponent</title>
<polygon fill="#ffffb3" stroke="black" points="1698.32,-84.8 1525.68,-84.8 1525.68,-48.8 1698.32,-48.8 1698.32,-84.8"/>
<text text-anchor="middle" x="1612" y="-62.6" font-family="Times,serif" font-size="14.00">DialogEditWishComponent</text>
</g>
<!-- DialogEditWishComponent&#45;&gt;AppModule -->
<g id="edge8" class="edge">
<title>DialogEditWishComponent&#45;&gt;AppModule</title>
<path fill="none" stroke="black" d="M1612,-84.92C1612,-99.58 1612,-117.8 1612,-117.8 1612,-117.8 1464.72,-117.8 1464.72,-117.8"/>
<polygon fill="black" stroke="black" points="1464.72,-114.3 1454.72,-117.8 1464.72,-121.3 1464.72,-114.3"/>
</g>
<!-- DialogJoinChannelComponent -->
<g id="node9" class="node">
<title>DialogJoinChannelComponent</title>
<polygon fill="#ffffb3" stroke="black" points="1507.93,-84.8 1318.07,-84.8 1318.07,-48.8 1507.93,-48.8 1507.93,-84.8"/>
<text text-anchor="middle" x="1413" y="-62.6" font-family="Times,serif" font-size="14.00">DialogJoinChannelComponent</text>
</g>
<!-- DialogJoinChannelComponent&#45;&gt;AppModule -->
<g id="edge9" class="edge">
<title>DialogJoinChannelComponent&#45;&gt;AppModule</title>
<path fill="none" stroke="black" d="M1413,-84.91C1413,-84.91 1413,-103.79 1413,-103.79"/>
<polygon fill="black" stroke="black" points="1409.5,-103.79 1413,-113.79 1416.5,-103.79 1409.5,-103.79"/>
</g>
<!-- DialogLegalNoticeComponent -->
<g id="node10" class="node">
<title>DialogLegalNoticeComponent</title>
<polygon fill="#ffffb3" stroke="black" points="1300.12,-84.8 1111.88,-84.8 1111.88,-48.8 1300.12,-48.8 1300.12,-84.8"/>
<text text-anchor="middle" x="1206" y="-62.6" font-family="Times,serif" font-size="14.00">DialogLegalNoticeComponent</text>
</g>
<!-- DialogLegalNoticeComponent&#45;&gt;AppModule -->
<g id="edge10" class="edge">
<title>DialogLegalNoticeComponent&#45;&gt;AppModule</title>
<path fill="none" stroke="black" d="M1206,-84.92C1206,-99.58 1206,-117.8 1206,-117.8 1206,-117.8 1361.11,-117.8 1361.11,-117.8"/>
<polygon fill="black" stroke="black" points="1361.11,-121.3 1371.11,-117.8 1361.11,-114.3 1361.11,-121.3"/>
</g>
<!-- DialogStartComponent -->
<g id="node11" class="node">
<title>DialogStartComponent</title>
<polygon fill="#ffffb3" stroke="black" points="1093.87,-84.8 948.13,-84.8 948.13,-48.8 1093.87,-48.8 1093.87,-84.8"/>
<text text-anchor="middle" x="1021" y="-62.6" font-family="Times,serif" font-size="14.00">DialogStartComponent</text>
</g>
<!-- DialogStartComponent&#45;&gt;AppModule -->
<g id="edge11" class="edge">
<title>DialogStartComponent&#45;&gt;AppModule</title>
<path fill="none" stroke="black" d="M1021,-84.81C1021,-100.85 1021,-121.8 1021,-121.8 1021,-121.8 1361.05,-121.8 1361.05,-121.8"/>
<polygon fill="black" stroke="black" points="1361.05,-125.3 1371.05,-121.8 1361.05,-118.3 1361.05,-125.3"/>
</g>
<!-- DialogUserDeleteComponent -->
<g id="node12" class="node">
<title>DialogUserDeleteComponent</title>
<polygon fill="#ffffb3" stroke="black" points="930.39,-84.8 747.61,-84.8 747.61,-48.8 930.39,-48.8 930.39,-84.8"/>
<text text-anchor="middle" x="839" y="-62.6" font-family="Times,serif" font-size="14.00">DialogUserDeleteComponent</text>
</g>
<!-- DialogUserDeleteComponent&#45;&gt;AppModule -->
<g id="edge12" class="edge">
<title>DialogUserDeleteComponent&#45;&gt;AppModule</title>
<path fill="none" stroke="black" d="M839,-84.82C839,-102.17 839,-125.8 839,-125.8 839,-125.8 1361.26,-125.8 1361.26,-125.8"/>
<polygon fill="black" stroke="black" points="1361.26,-129.3 1371.26,-125.8 1361.26,-122.3 1361.26,-129.3"/>
</g>
<!-- MenuBarComponent -->
<g id="node13" class="node">
<title>MenuBarComponent</title>
<polygon fill="#ffffb3" stroke="black" points="730.2,-84.8 595.8,-84.8 595.8,-48.8 730.2,-48.8 730.2,-84.8"/>
<text text-anchor="middle" x="663" y="-62.6" font-family="Times,serif" font-size="14.00">MenuBarComponent</text>
</g>
<!-- MenuBarComponent&#45;&gt;AppModule -->
<g id="edge13" class="edge">
<title>MenuBarComponent&#45;&gt;AppModule</title>
<path fill="none" stroke="black" d="M663,-85.02C663,-103.63 663,-129.8 663,-129.8 663,-129.8 1361.34,-129.8 1361.34,-129.8"/>
<polygon fill="black" stroke="black" points="1361.34,-133.3 1371.34,-129.8 1361.34,-126.3 1361.34,-133.3"/>
</g>
<!-- SignInComponent -->
<g id="node14" class="node">
<title>SignInComponent</title>
<polygon fill="#ffffb3" stroke="black" points="578.17,-84.8 459.83,-84.8 459.83,-48.8 578.17,-48.8 578.17,-84.8"/>
<text text-anchor="middle" x="519" y="-62.6" font-family="Times,serif" font-size="14.00">SignInComponent</text>
</g>
<!-- SignInComponent&#45;&gt;AppModule -->
<g id="edge14" class="edge">
<title>SignInComponent&#45;&gt;AppModule</title>
<path fill="none" stroke="black" d="M519,-85.11C519,-104.95 519,-133.8 519,-133.8 519,-133.8 1361.08,-133.8 1361.08,-133.8"/>
<polygon fill="black" stroke="black" points="1361.08,-137.3 1371.08,-133.8 1361.08,-130.3 1361.08,-137.3"/>
</g>
<!-- SignUpComponent -->
<g id="node15" class="node">
<title>SignUpComponent</title>
<polygon fill="#ffffb3" stroke="black" points="442.11,-84.8 317.89,-84.8 317.89,-48.8 442.11,-48.8 442.11,-84.8"/>
<text text-anchor="middle" x="380" y="-62.6" font-family="Times,serif" font-size="14.00">SignUpComponent</text>
</g>
<!-- SignUpComponent&#45;&gt;AppModule -->
<g id="edge15" class="edge">
<title>SignUpComponent&#45;&gt;AppModule</title>
<path fill="none" stroke="black" d="M380,-85.08C380,-106.12 380,-137.8 380,-137.8 380,-137.8 1361.23,-137.8 1361.23,-137.8"/>
<polygon fill="black" stroke="black" points="1361.23,-141.3 1371.23,-137.8 1361.23,-134.3 1361.23,-141.3"/>
</g>
<!-- AppComponent  -->
<g id="node18" class="node">
<title>AppComponent </title>
<polygon fill="#80b1d3" stroke="black" points="1467.44,-214.8 1358.56,-214.8 1358.56,-178.8 1467.44,-178.8 1467.44,-214.8"/>
<text text-anchor="middle" x="1413" y="-192.6" font-family="Times,serif" font-size="14.00">AppComponent </text>
</g>
<!-- AppModule&#45;&gt;AppComponent  -->
<g id="edge17" class="edge">
<title>AppModule&#45;&gt;AppComponent </title>
<path fill="none" stroke="black" stroke-dasharray="1,5" d="M1413,-149.91C1413,-149.91 1413,-168.79 1413,-168.79"/>
<polygon fill="black" stroke="black" points="1409.5,-168.79 1413,-178.79 1416.5,-168.79 1409.5,-168.79"/>
</g>
<!-- AppRoutingModule -->
<g id="node17" class="node">
<title>AppRoutingModule</title>
<polygon fill="#8dd3c7" stroke="black" points="294.27,-84.8 291.27,-88.8 270.27,-88.8 267.27,-84.8 165.73,-84.8 165.73,-48.8 294.27,-48.8 294.27,-84.8"/>
<text text-anchor="middle" x="230" y="-62.6" font-family="Times,serif" font-size="14.00">AppRoutingModule</text>
</g>
<!-- AppRoutingModule&#45;&gt;AppModule -->
<g id="edge16" class="edge">
<title>AppRoutingModule&#45;&gt;AppModule</title>
<path fill="none" stroke="black" d="M230,-84.96C230,-107.15 230,-141.8 230,-141.8 230,-141.8 1361.24,-141.8 1361.24,-141.8"/>
<polygon fill="black" stroke="black" points="1361.24,-145.3 1371.24,-141.8 1361.24,-138.3 1361.24,-145.3"/>
</g>
<!-- AuthService -->
<g id="node19" class="node">
<title>AuthService</title>
<ellipse fill="#fdb462" stroke="black" cx="83" cy="-66.8" rx="59.11" ry="18"/>
<text text-anchor="middle" x="83" y="-62.6" font-family="Times,serif" font-size="14.00">AuthService</text>
</g>
<!-- AuthService&#45;&gt;AppModule -->
<g id="edge18" class="edge">
<title>AuthService&#45;&gt;AppModule</title>
<path fill="none" stroke="black" d="M83,-85.12C83,-108.46 83,-145.8 83,-145.8 83,-145.8 1361,-145.8 1361,-145.8"/>
<polygon fill="black" stroke="black" points="1361,-149.3 1371,-145.8 1361,-142.3 1361,-149.3"/>
</g>
</g>
</svg>
